<svg xmlns="http://www.w3.org/2000/svg" xmlns:xlink="http://www.w3.org/1999/xlink" viewBox="0 0 265 328" preserveAspectRatio="xMidYMid" style="display: block; shape-rendering: auto; background: rgba(255, 255, 255, 0);" width="265" height="328"><style type="text/css" data-idx="1">
  .ld-text text {
    text-anchor: middle;
    dominant-baseline: middle;
    font-size: 98px;
    opacity: 0;
    user-select: none;
    pointer-events: none;
  }
</style>
<g style="transform-origin: 132.5px 164px; transform: matrix(1, 0, 0, 1, 0, 0);" class="ld-text" data-idx="2">
<g transform="matrix(1,0,0,1,132.5,164)" data-idx="3">
  <g transform="matrix(1.225000023841858,0,0,1.225000023841858,0,0)" data-idx="4"><g class="path" style="opacity: 1; transform-origin: -74.23px 0px; transform: matrix(-0.566522, 0, 0, 1, 0, 0); animation: 2s linear -48.396s infinite normal forwards paused animate-bec8tza45m; transform-box: view-box;" data-idx="5"><path d="M37.93 56.02L32.89 56.02L32.89 30.43L11.45 30.43L11.45 56.02L6.41 56.02L6.41 0L11.45 0L11.45 25.63L32.89 25.63L32.89 0L37.93 0L37.93 56.02" style="fill: rgb(242, 150, 32);" transform="matrix(1,0,0,1,-96.40499877929688,-28.010000228881836)" data-idx="6"></path></g><g class="path" style="opacity: 1; transform-origin: -29.9px 0px; transform: matrix(0.375834, 0, 0, 1, 0, 0); animation: 2s linear -48.132s infinite normal forwards paused animate-bec8tza45m; transform-box: view-box;" data-idx="7"><path d="M82.27 56.02L50.74 56.02L50.74 0L82.27 0L82.27 4.81L55.78 4.81L55.78 25.63L77.23 25.63L77.23 30.43L55.78 30.43L55.78 51.22L82.27 51.22L82.27 56.02" style="fill: rgb(242, 150, 32);" transform="matrix(1,0,0,1,-96.40499877929688,-28.010000228881836)" data-idx="8"></path></g><g class="path" style="opacity: 1; transform-origin: 8.42px 0px; transform: matrix(0.988539, 0, 0, 1, 0, 0); animation: 2s linear -47.868s infinite normal forwards paused animate-bec8tza45m; transform-box: view-box;" data-idx="9"><path d="M121.80 56.02L116.37 56.02L104.84 32.74L93.32 56.02L87.85 56.02L102.11 27.23L88.67 0L94.10 0L104.84 21.68L115.55 0L120.98 0L107.54 27.23L121.80 56.02" style="fill: rgb(242, 150, 32);" transform="matrix(1,0,0,1,-96.40499877929688,-28.010000228881836)" data-idx="10"></path></g><g class="path" style="opacity: 1; transform-origin: 46.33px 0px; transform: matrix(0.860655, 0, 0, 1, 0, 0); animation: 2s linear -47.604s infinite normal forwards paused animate-bec8tza45m; transform-box: view-box;" data-idx="11"><path d="M155.31 56.02L151.60 42.97L133.87 42.97L130.20 56.02L124.96 56.02L141.37 0L144.02 0L160.51 56.02L155.31 56.02 zM142.58 12.35L135.23 38.17L150.27 38.17L142.89 12.35L142.73 10.28L142.58 12.35" style="fill: rgb(242, 150, 32);" transform="matrix(1,0,0,1,-96.40499877929688,-28.010000228881836)" data-idx="12"></path></g><g class="path" style="opacity: 1; transform-origin: 87.06px 0px; transform: matrix(0.412589, 0, 0, 1, 0, 0); animation: 2s linear -47.34s infinite normal forwards paused animate-bec8tza45m; transform-box: view-box;" data-idx="13"><path d="M199.22 42.27L199.22 42.27Q199.22 45.12 198.14 47.62Q197.07 50.12 195.20 52Q193.32 53.87 190.80 54.95Q188.28 56.02 185.43 56.02L185.43 56.02L167.70 56.02L167.70 0L185.43 0Q188.28 0 190.80 1.08Q193.32 2.15 195.20 4.03Q197.07 5.90 198.14 8.42Q199.22 10.94 199.22 13.79L199.22 13.79L199.22 42.27 zM194.18 42.27L194.18 13.79Q194.18 11.92 193.48 10.30Q192.77 8.68 191.54 7.45Q190.31 6.22 188.69 5.51Q187.07 4.81 185.20 4.81L185.20 4.81L172.73 4.81L172.73 51.22L185.20 51.22Q187.07 51.22 188.69 50.51Q190.31 49.81 191.54 48.60Q192.77 47.39 193.48 45.77Q194.18 44.14 194.18 42.27L194.18 42.27" style="fill: rgb(242, 150, 32);" transform="matrix(1,0,0,1,-96.40499877929688,-28.010000228881836)" data-idx="14"></path></g></g><text dy="0.35em" fill="#f29620" font-family="Abel" font-size="98" data-idx="15" style="opacity: 0;">HEXAD</text>
</g>
</g><style type="text/css" data-idx="16">@keyframes animate-bec8tza45m { 0.00% {animation-timing-function: cubic-bezier(0.67,0.65,0.34,0.32);transform: translate(0.00px,0.00px) rotate(0.00deg) scale(1.00, 1.00) skew(0deg, 0.00deg) ;opacity: 1.00;}4.00% {animation-timing-function: cubic-bezier(0.33,0.34,0.66,0.68);transform: translate(0.00px,0.00px) rotate(0.00deg) scale(0.62, 1.00) ;}10.00% {transform: translate(0.00px,0.00px) rotate(0.00deg) scale(0.07, 1.00) ;}12.00% {transform: translate(0.00px,0.00px) rotate(180.00deg) scale(0.09, -1.00) ;}14.00% {animation-timing-function: cubic-bezier(0.19,0.57,0.36,1.00);transform: translate(0.00px,0.00px) rotate(180.00deg) scale(0.24, -1.00) ;}50.00% {animation-timing-function: cubic-bezier(0.67,0.65,0.34,0.32);transform: translate(0.00px,0.00px) rotate(180.00deg) scale(1.00, -1.00) ;}54.00% {animation-timing-function: cubic-bezier(0.33,0.34,0.66,0.68);transform: translate(0.00px,0.00px) rotate(180.00deg) scale(0.62, -1.00) ;}60.00% {transform: translate(0.00px,0.00px) rotate(180.00deg) scale(0.07, -1.00) ;}62.00% {transform: translate(0.00px,0.00px) rotate(0.00deg) scale(0.09, 1.00) ;}64.00% {animation-timing-function: cubic-bezier(0.19,0.54,0.38,1.00);transform: translate(0.00px,0.00px) rotate(0.00deg) scale(0.24, 1.00) ;}100.00% {animation-timing-function: cubic-bezier(0.19,0.54,0.38,1.00);transform: translate(0.00px,0.00px) rotate(0.00deg) scale(1.00, 1.00) ;} }</style></svg>